<svg width="139" height="25" viewBox="0 0 139 25" fill="none" xmlns="http://www.w3.org/2000/svg">
<path d="M12.3562 0L15.8569 7.53796L24.1077 8.53794L18.0204 14.1966L19.619 22.3526L12.3562 18.3119L5.09341 22.3526L6.69201 14.1966L0.604756 8.53794L8.85555 7.53796L12.3562 0Z" fill="#FFC633"/>
<path d="M44.1682 0L47.6689 7.53796L55.9197 8.53794L49.8324 14.1966L51.431 22.3526L44.1682 18.3119L36.9054 22.3526L38.504 14.1966L32.4168 8.53794L40.6676 7.53796L44.1682 0Z" fill="#FFC633"/>
<path d="M75.9805 0L79.4812 7.53796L87.7319 8.53794L81.6447 14.1966L83.2433 22.3526L75.9805 18.3119L68.7177 22.3526L70.3163 14.1966L64.229 8.53794L72.4798 7.53796L75.9805 0Z" fill="#FFC633"/>
<path d="M107.792 0L111.293 7.53796L119.544 8.53794L113.457 14.1966L115.055 22.3526L107.792 18.3119L100.53 22.3526L102.128 14.1966L96.041 8.53794L104.292 7.53796L107.792 0Z" fill="#FFC633"/>
<path d="M131.737 22.3526L139 18.3119V0L135.499 7.53796L127.249 8.53793L133.336 14.1966L131.737 22.3526Z" fill="#FFC633"/>
</svg>
